# xmcd
#
# Track frame offsets:
#	150
#	15245
#	29114
#	42737
#	56865
#	69717
#	83857
#	97482
#	112416
#	127964
#	141617
#	154888
#	171940
#	187051
#	202788
#	215159
#	230664
#	245663
#	258771
#	272847
#	286904
#	302176
#	315821
#
# Disc length: 4418 seconds
#
# Revision: 0
# Processed by: cddbd v1.5.1PL0 Copyright (c) Steve Scherf et al.
# Submitted via: dBpowerAMP V4.0
#
DISCID=6e114017
DTITLE=Los Tucanes de Tijuana - 23 Exitos
DYEAR=1900
DGENRE=Grupera
TTITLE0=Desde que te amo
TTITLE1=Espejeando
TTITLE2=Amor Platonico
TTITLE3=Lupe Bombas
TTITLE4=Mundo de amor
TTITLE5=El compositor
TTITLE6=Los dichos de Lupita
TTITLE7=Secuestro de amor
TTITLE8=La fiesta de los panes
TTITLE9=Ando bien arreglado
TTITLE10=El tucanazo
TTITLE11=Cinco letras de miel
TTITLE12=La chona
TTITLE13=Adivina adivinador
TTITLE14=Mis tres animales
TTITLE15=El manos verdes
TTITLE16=Clave privada
TTITLE17=El narizon
TTITLE18=Seis pies boca abajo
TTITLE19=El gordito country
TTITLE20=El gavioton
TTITLE21=La traigo muerta
TTITLE22=El primer beso
EXTD=
EXTT0=
EXTT1=
EXTT2=
EXTT3=
EXTT4=
EXTT5=
EXTT6=
EXTT7=
EXTT8=
EXTT9=
EXTT10=
EXTT11=
EXTT12=
EXTT13=
EXTT14=
EXTT15=
EXTT16=
EXTT17=
EXTT18=
EXTT19=
EXTT20=
EXTT21=
EXTT22=
PLAYORDER=
